Coordinates
version=1
nRows=15
nColumns=46
inDegrees=yes

Units are S.I. units (second, meters, Newtons, ...)
Angles are in degrees.

endheader
time	pelvis_tilt	pelvis_list	pelvis_rotation	pelvis_tx	pelvis_ty	pelvis_tz	bb_angle	bb_tx	bb_ty	bb_tz	hip_flexion_r	hip_adduction_r	hip_rotation_r	knee_angle_r	knee_angle_r_beta	ankle_angle_r	subtalar_angle_r	mtp_angle_r	crank_angle_r	hip_flexion_l	hip_adduction_l	hip_rotation_l	knee_angle_l	knee_angle_l_beta	ankle_angle_l	subtalar_angle_l	mtp_angle_l	crank_angle_l	lumbar_extension	lumbar_bending	lumbar_rotation	arm_flex_r	arm_add_r	arm_rot_r	elbow_flex_r	pro_sup_r	wrist_flex_r	wrist_dev_r	arm_flex_l	arm_add_l	arm_rot_l	elbow_flex_l	pro_sup_l	wrist_flex_l	wrist_dev_l
      0.00000000	    -28.42814545	    -33.46177493	     -0.36383774	      0.11763767	      1.00991610	     -0.27134221	      0.00000000	      0.50000000	      0.00000000	      0.25000000	     65.31125800	     18.59981458	    -25.68097793	     60.16998468	      1.05016434	      8.55116970	    -17.75823607	      0.00000000	      0.00000000	    119.98542135	      1.15817386	     39.96437543	    112.88964662	      1.97029603	     24.95210408	      7.01886376	      0.00000000	      0.00000000	    -32.32992509	     32.70190321	     13.38475936	     81.19216529	     -9.35484382	     57.34642723	     35.66664282	     34.12386633	      0.00000000	      0.00000000	     74.95430450	    -21.42731345	     53.56497164	     40.72010888	     37.99160518	      0.00000000	      0.00000000
      0.00500000	    -28.42736696	    -33.46230583	     -0.36472227	      0.11766680	      1.00993099	     -0.27134273	      0.00000000	      0.50000000	      0.00000000	      0.25000000	     65.30619139	     18.60255679	    -25.68217806	     60.16505569	      1.05007832	      8.55022529	    -17.76040549	      0.00000000	      0.00000000	    119.98541924	      1.15767350	     39.96439044	    112.89288945	      1.97035262	     24.94434774	      7.02507161	      0.00000000	      0.00000000	    -32.33636455	     32.70184526	     13.38783528	     81.19171133	     -9.35686513	     57.33891351	     35.66417089	     34.13340629	      0.00000000	      0.00000000	     74.96317750	    -21.42946736	     53.56309626	     40.71432576	     38.00224084	      0.00000000	      0.00000000
      0.01000000	    -28.42788036	    -33.46218764	     -0.36624950	      0.11768285	      1.00994273	     -0.27134974	      0.00000000	      0.50000000	      0.00000000	      0.25000000	     65.30559124	     18.60312829	    -25.68175437	     60.16355253	      1.05005208	      8.54508568	    -17.76096357	      0.00000000	      0.00000000	    119.98541817	      1.15884829	     39.96440399	    112.89722554	      1.97042830	     24.93856538	      7.02853331	      0.00000000	      0.00000000	    -32.34032760	     32.70298312	     13.39071139	     81.19114055	     -9.35664648	     57.33169271	     35.66298489	     34.14303733	      0.00000000	      0.00000000	     74.96771905	    -21.42848517	     53.56254860	     40.70945221	     38.01302713	      0.00000000	      0.00000000
      0.01500000	    -28.42319252	    -33.47347060	     -0.35569524	      0.11772896	      1.00991469	     -0.27134625	      0.00000000	      0.50000000	      0.00000000	      0.25000000	     65.29288100	     18.62837460	    -25.67282157	     60.14110804	      1.04966035	      8.55690305	    -17.77674698	      0.00000000	      0.00000000	    119.98542084	      1.16898468	     39.96438138	    112.90304938	      1.97052995	     24.93964124	      7.02380930	      0.00000000	      0.00000000	    -32.34066495	     32.71595529	     13.39102098	     81.18702826	     -9.35588263	     57.32396385	     35.66207583	     34.15449501	      0.00000000	      0.00000000	     74.97101635	    -21.42417643	     53.56296718	     40.70326248	     38.02570812	      0.00000000	      0.00000000
      0.02000000	    -28.42649696	    -33.47957468	     -0.35282121	      0.11777894	      1.00995872	     -0.27135839	      0.00000000	      0.50000000	      0.00000000	      0.25000000	     65.28651989	     18.63453336	    -25.67669986	     60.12099630	      1.04930934	      8.55650160	    -17.78555181	      0.00000000	      0.00000000	    119.98541725	      1.17052671	     39.96438868	    112.90564868	      1.97057531	     24.93501625	      7.02186625	      0.00000000	      0.00000000	    -32.34345211	     32.72601764	     13.38658180	     81.18314408	     -9.35514932	     57.31640223	     35.66104029	     34.16504793	      0.00000000	      0.00000000	     74.96495720	    -21.41639734	     53.56652918	     40.69753891	     38.03787276	      0.00000000	      0.00000000
      0.02500000	    -28.42102693	    -33.48720814	     -0.33869703	      0.11775944	      1.00997570	     -0.27135067	      0.00000000	      0.50000000	      0.00000000	      0.25000000	     65.28550681	     18.63743599	    -25.67398068	     60.11057528	      1.04912745	      8.55209189	    -17.79590629	      0.00000000	      0.00000000	    119.98540897	      1.18267215	     39.96440129	    112.90087944	      1.97049207	     24.92814493	      7.02087042	      0.00000000	      0.00000000	    -32.34408070	     32.73661549	     13.38532363	     81.17976049	     -9.35490086	     57.30835915	     35.65979408	     34.17585059	      0.00000000	      0.00000000	     74.96569202	    -21.41275623	     53.56705033	     40.69029285	     38.04979621	      0.00000000	      0.00000000
      0.03000000	    -28.42411225	    -33.49184808	     -0.32875260	      0.11777003	      1.00997828	     -0.27134436	      0.00000000	      0.50000000	      0.00000000	      0.25000000	     65.29052447	     18.63587686	    -25.67939291	     60.10277678	      1.04899134	      8.54303796	    -17.80463716	      0.00000000	      0.00000000	    119.98540519	      1.19556983	     39.96442345	    112.89989717	      1.97047493	     24.92355205	      7.01600619	      0.00000000	      0.00000000	    -32.34716514	     32.74525098	     13.39804051	     81.15640611	     -9.33829494	     57.31041188	     35.66181154	     34.18921104	      0.00000000	      0.00000000	     74.96822511	    -21.40228174	     53.56836628	     40.68536552	     38.06327085	      0.00000000	      0.00000000
      0.03500000	    -28.42243693	    -33.49667933	     -0.32604275	      0.11779168	      1.00997967	     -0.27136042	      0.00000000	      0.50000000	      0.00000000	      0.25000000	     65.28663677	     18.63651285	    -25.68163140	     60.09845410	      1.04891590	      8.53548980	    -17.81212382	      0.00000000	      0.00000000	    119.98540483	      1.20073555	     39.96444939	    112.90433212	      1.97055234	     24.92015471	      7.01086830	      0.00000000	      0.00000000	    -32.34575137	     32.75233615	     13.39575978	     81.14859607	     -9.33520842	     57.30781775	     35.66162983	     34.19978223	      0.00000000	      0.00000000	     74.96931344	    -21.39529516	     53.56891101	     40.67987639	     38.07443631	      0.00000000	      0.00000000
      0.04000000	    -28.42391146	    -33.49938167	     -0.32242153	      0.11780462	      1.00997964	     -0.27136651	      0.00000000	      0.50000000	      0.00000000	      0.25000000	     65.28874161	     18.63593491	    -25.68215654	     60.09543885	      1.04886327	      8.52995850	    -17.82047281	      0.00000000	      0.00000000	    119.98540287	      1.20866587	     39.96447546	    112.90588289	      1.97057940	     24.91699360	      7.00333095	      0.00000000	      0.00000000	    -32.34098137	     32.75859942	     13.39456603	     81.14345982	     -9.33351896	     57.30449414	     35.66131694	     34.21088815	      0.00000000	      0.00000000	     74.96821947	    -21.38999881	     53.56924809	     40.67308684	     38.08610958	      0.00000000	      0.00000000
      0.04500000	    -28.43889530	    -33.49585416	     -0.33751332	      0.11788429	      1.00997208	     -0.27142196	      0.00000000	      0.50000000	      0.00000000	      0.25000000	     65.28944756	     18.63325328	    -25.68753951	     60.09099486	      1.04878571	      8.52301708	    -17.82428010	      0.00000000	      0.00000000	    119.98541678	      1.20961742	     39.96450293	    112.91985505	      1.97082326	     24.92092476	      6.99190360	      0.00000000	      0.00000000	    -32.33048873	     32.76346030	     13.39598870	     81.13742790	     -9.33433399	     57.30115424	     35.66041136	     34.22131044	      0.00000000	      0.00000000	     74.96118553	    -21.38713944	     53.56960005	     40.66543564	     38.09703609	      0.00000000	      0.00000000
      0.05000000	    -28.44301960	    -33.49408223	     -0.33687092	      0.11789140	      1.00996792	     -0.27140232	      0.00000000	      0.50000000	      0.00000000	      0.25000000	     65.29618551	     18.63392783	    -25.68413426	     60.09030676	      1.04877370	      8.51780373	    -17.83020753	      0.00000000	      0.00000000	    119.98541460	      1.21414595	     39.96451799	    112.92106746	      1.97084442	     24.92528205	      6.97977976	      0.00000000	      0.00000000	    -32.32318460	     32.76397914	     13.39720106	     81.13064882	     -9.33574450	     57.29719927	     35.65929092	     34.23300353	      0.00000000	      0.00000000	     74.95215262	    -21.38370083	     53.56986947	     40.65681024	     38.10933848	      0.00000000	      0.00000000
      0.05500000	    -28.45941291	    -33.48633372	     -0.36429292	      0.11800269	      1.00994290	     -0.27149825	      0.00000000	      0.50000000	      0.00000000	      0.25000000	     65.29106411	     18.63067346	    -25.68547900	     60.09234353	      1.04880925	      8.51318074	    -17.83215022	      0.00000000	      0.00000000	    119.98543854	      1.20723905	     39.96456590	    112.94195974	      1.97120906	     24.93401250	      6.96549918	      0.00000000	      0.00000000	    -32.30944922	     32.76468647	     13.40121158	     81.12245825	     -9.33696149	     57.29416321	     35.65887720	     34.24355845	      0.00000000	      0.00000000	     74.93969006	    -21.38074092	     53.57027392	     40.64948728	     38.12038816	      0.00000000	      0.00000000
      0.06000000	    -28.46443441	    -33.48255157	     -0.36722232	      0.11801332	      1.00992042	     -0.27149233	      0.00000000	      0.50000000	      0.00000000	      0.25000000	     65.30208809	     18.63587238	    -25.66849184	     60.09798878	      1.04890778	      8.51269137	    -17.83648825	      0.00000000	      0.00000000	    119.98543517	      1.21124122	     39.96457078	    112.94753471	      1.97130636	     24.94264428	      6.95023941	      0.00000000	      0.00000000	    -32.30110717	     32.76451140	     13.40473945	     81.11260858	     -9.33992700	     57.29054733	     35.65797441	     34.25544462	      0.00000000	      0.00000000	     74.92602014	    -21.37743425	     53.56993478	     40.64153215	     38.13290101	      0.00000000	      0.00000000
      0.06500000	    -28.46723004	    -33.47913679	     -0.37112454	      0.11802908	      1.00991103	     -0.27148151	      0.00000000	      0.50000000	      0.00000000	      0.25000000	     65.30698549	     18.63883524	    -25.65978545	     60.10298429	      1.04899497	      8.50882765	    -17.84004878	      0.00000000	      0.00000000	    119.98543524	      1.21022123	     39.96457165	    112.94969825	      1.97134412	     24.94807942	      6.93800976	      0.00000000	      0.00000000	    -32.29468901	     32.76023031	     13.40612571	     81.10439934	     -9.34301700	     57.28636485	     35.65732691	     34.26703367	      0.00000000	      0.00000000	     74.91705894	    -21.37358689	     53.56854124	     40.63453700	     38.14511541	      0.00000000	      0.00000000
      0.07000000	    -28.46854410	    -33.47521501	     -0.37484129	      0.11803750	      1.00990705	     -0.27146080	      0.00000000	      0.50000000	      0.00000000	      0.25000000	     65.31020134	     18.64220132	    -25.65321897	     60.10694956	      1.04906417	      8.50515873	    -17.84549805	      0.00000000	      0.00000000	    119.98543509	      1.20798980	     39.96456605	    112.95126122	      1.97137140	     24.95020341	      6.92834809	      0.00000000	      0.00000000	    -32.29086069	     32.75490469	     13.40840950	     81.09611858	     -9.34679553	     57.28208106	     35.65662861	     34.27848243	      0.00000000	      0.00000000	     74.91210353	    -21.37187222	     53.56556067	     40.62740744	     38.15697533	      0.00000000	      0.00000000
